<?xml version="1.0" standalone="no"?>
<!DOCTYPE svg PUBLIC "-//W3C//DTD SVG 20010904//EN"
 "http://www.w3.org/TR/2001/REC-SVG-20010904/DTD/svg10.dtd">
<svg version="1.0" xmlns="http://www.w3.org/2000/svg"
 width="546.000000pt" height="546.000000pt" viewBox="0 0 546.000000 546.000000"
 preserveAspectRatio="xMidYMid meet">
<metadata>
Created by potrace 1.14, written by Peter Selinger 2001-2017
</metadata>
<g transform="translate(0.000000,546.000000) scale(0.100000,-0.100000)"
fill="#000000" stroke="none">
<path d="M1040 3320 c-41 -60 -78 -110 -82 -110 -5 0 -8 -5 -8 -10 0 -6 -26
-46 -57 -89 -32 -44 -65 -89 -73 -101 -8 -12 -42 -60 -75 -106 -33 -46 -80
-113 -105 -150 -25 -36 -50 -71 -55 -77 -6 -7 -98 -136 -205 -287 -107 -151
-197 -277 -200 -280 -3 -3 -20 -27 -38 -55 -25 -40 -29 -51 -16 -53 28 -6 40
5 104 100 35 51 67 95 70 98 4 3 30 39 58 80 29 41 68 98 87 125 19 28 40 58
47 69 7 10 22 30 33 44 11 15 50 69 87 122 37 52 72 102 78 110 9 13 44 15
218 14 114 -1 214 -2 222 -3 13 -1 15 -25 14 -163 0 -90 1 -169 4 -175 4 -14
31 -18 33 -5 1 4 2 233 3 510 l1 502 -35 0 c-33 -1 -39 -7 -110 -110z m105
-224 c-1 -151 -4 -278 -8 -283 -10 -9 -397 -10 -397 -1 0 6 19 34 128 187 18
25 44 62 57 81 13 19 44 62 67 96 24 33 66 92 93 131 28 39 52 70 55 68 3 -2
5 -127 5 -279z"/>
<path d="M1279 3428 c-5 -8 -4 -1008 0 -1009 4 -1 20 -3 38 -5 30 -2 36 5 149
164 65 92 120 169 123 172 3 3 31 41 60 85 30 44 59 82 63 83 4 2 8 10 8 18 0
8 3 14 8 14 4 0 18 18 31 40 14 22 27 38 29 35 3 -2 5 -141 4 -308 l0 -304
332 1 331 1 2 469 c1 258 4 474 6 479 2 6 13 -6 26 -26 13 -21 28 -43 35 -50
6 -6 36 -48 66 -91 30 -44 61 -87 67 -95 7 -9 78 -108 158 -221 80 -113 152
-213 160 -223 8 -9 15 -21 15 -26 0 -5 3 -11 8 -13 4 -1 40 -49 80 -106 51
-71 79 -102 90 -100 16 3 17 47 20 511 2 502 2 507 -18 507 -23 0 -21 59 -21
-548 0 -251 -3 -391 -9 -387 -6 3 -10 12 -10 20 0 7 -4 15 -9 17 -5 2 -48 59
-97 128 -48 69 -90 127 -93 130 -3 3 -10 13 -16 22 -5 9 -93 133 -194 275
-101 142 -198 277 -215 301 -25 36 -35 43 -60 40 l-29 -3 -1 -485 -1 -485
-287 0 -288 0 0 222 c0 246 -6 227 65 224 17 0 41 -1 55 -1 14 0 88 1 165 2
138 1 169 7 159 32 -4 10 -54 13 -212 14 -114 0 -213 1 -219 1 -9 1 -13 24
-13 82 0 50 5 85 13 94 6 7 52 70 101 139 l88 126 119 -3 c117 -2 119 -2 119
21 l0 22 -243 0 -244 0 -1 -160 c-1 -159 -1 -160 -29 -197 -15 -21 -31 -39
-35 -41 -5 -2 -8 -9 -8 -15 0 -7 -9 -23 -21 -37 -11 -14 -53 -72 -94 -130 -41
-58 -79 -110 -85 -117 -5 -7 -10 -16 -10 -22 0 -5 -4 -11 -8 -13 -5 -1 -23
-25 -42 -53 -19 -27 -39 -55 -45 -62 -5 -6 -28 -37 -50 -70 l-40 -58 -3 488
c-2 479 -3 487 -22 487 -11 0 -21 -1 -21 -2z m701 -44 c0 -5 -112 -165 -132
-188 -4 -6 -8 36 -8 92 l0 102 70 0 c39 0 70 -3 70 -6z"/>
<path d="M3269 3388 c0 -24 0 -194 0 -378 0 -310 2 -340 21 -402 11 -36 33
-81 48 -98 94 -109 259 -146 386 -86 98 46 145 109 174 231 2 11 5 189 6 395
l1 375 -22 3 -22 3 -3 -398 c-3 -394 -3 -398 -26 -445 -90 -182 -356 -198
-470 -28 -17 25 -34 59 -38 75 -4 17 -8 199 -10 405 -1 206 -3 378 -3 383 -1
4 -10 7 -21 7 -17 0 -20 -7 -21 -42z"/>
<path d="M4014 2923 l1 -508 654 0 c605 0 654 1 657 17 1 9 -3 18 -9 20 -7 2
-291 4 -632 3 -349 0 -623 3 -626 8 -4 5 -3 24 1 43 4 18 5 35 2 38 -7 8 -5
253 2 265 4 5 2 12 -2 15 -5 3 -6 22 -3 43 l6 37 143 0 c78 1 142 -3 142 -7 0
-5 6 -5 13 0 6 4 41 8 77 8 58 0 65 2 65 20 0 19 -7 20 -217 21 -120 0 -220 3
-224 6 -8 9 -8 363 0 376 3 6 2 13 -3 16 -5 3 -7 15 -4 25 5 18 16 19 176 19
286 0 276 0 273 20 -3 16 -23 17 -248 20 l-245 2 1 -507z"/>
<path d="M3550 2170 c0 -40 4 -70 10 -70 6 0 10 30 10 70 0 40 -4 70 -10 70
-6 0 -10 -30 -10 -70z"/>
<path d="M5258 2228 c-15 -5 -31 -21 -37 -36 l-9 -27 -1 33 c-1 51 -21 37 -21
-15 l0 -47 -30 47 c-30 47 -49 60 -51 32 -4 -70 -1 -109 9 -113 9 -3 11 9 8
37 -2 23 -1 43 3 45 4 3 18 -15 31 -40 28 -50 50 -57 51 -16 0 25 1 26 9 5 5
-12 18 -27 29 -33 22 -11 70 -4 72 11 6 47 3 54 -25 57 -18 2 -26 0 -21 -7 3
-6 10 -9 15 -6 10 6 19 -16 13 -32 -6 -17 -38 -16 -52 1 -35 41 -5 102 44 90
14 -3 25 -2 25 4 0 15 -32 20 -62 10z"/>
<path d="M1755 2209 c38 -130 57 -148 70 -69 9 51 21 51 30 -1 9 -54 35 -49
51 11 6 25 15 53 19 64 6 14 4 17 -6 14 -7 -2 -18 -23 -24 -46 -10 -42 -25
-66 -25 -41 0 33 -22 90 -33 86 -7 -2 -12 -8 -13 -13 0 -5 -4 -27 -9 -48 l-8
-39 -13 26 c-8 14 -15 36 -17 48 -2 13 -10 25 -16 27 -9 3 -11 -2 -6 -19z"/>
<path d="M1954 2165 c0 -37 5 -65 11 -66 54 -4 65 -4 65 3 0 8 -7 10 -40 12
-25 2 -18 41 8 44 30 4 29 20 -2 17 -18 -2 -23 2 -22 19 1 16 7 21 29 20 15
-1 27 3 27 7 0 5 -17 9 -38 9 l-38 0 0 -65z"/>
<path d="M2050 2167 c0 -64 0 -65 29 -69 17 -2 37 0 45 4 16 9 22 49 9 62 -4
4 -7 19 -8 34 0 24 -4 27 -37 30 l-38 3 0 -64z m58 24 c-5 -24 -38 -27 -38 -3
0 10 3 21 6 25 11 11 35 -5 32 -22z m9 -47 c7 -18 -14 -35 -34 -27 -7 3 -13
14 -13 24 0 24 38 26 47 3z"/>
<path d="M2167 2223 c-15 -14 -6 -39 24 -64 36 -29 32 -54 -7 -45 -13 4 -24 2
-24 -3 0 -13 33 -19 58 -10 31 12 27 40 -9 70 -37 30 -32 53 8 43 18 -5 24 -3
19 5 -8 12 -58 15 -69 4z"/>
<path d="M2260 2165 c0 -37 4 -65 10 -65 6 0 10 28 10 65 0 37 -4 65 -10 65
-6 0 -10 -28 -10 -65z"/>
<path d="M2304 2223 c4 -5 12 -9 17 -9 5 -1 13 -2 17 -3 4 0 7 -26 5 -56 -1
-30 3 -55 8 -55 11 0 12 10 10 68 -1 23 3 43 9 43 5 1 14 2 19 3 5 0 13 4 17
9 4 4 -19 7 -51 7 -32 0 -55 -3 -51 -7z"/>
<path d="M2419 2213 c-3 -51 -1 -101 4 -110 3 -5 16 -9 29 -7 13 1 27 3 31 3
5 1 6 5 2 11 -3 5 -13 6 -21 3 -18 -7 -35 14 -27 34 3 7 17 13 31 13 25 0 26
10 0 14 -7 1 -19 5 -26 10 -19 12 4 35 28 29 11 -3 20 0 20 6 0 6 -16 11 -35
11 -26 0 -35 -4 -36 -17z"/>
<path d="M2550 2166 c0 -71 6 -78 57 -64 37 10 51 30 48 70 -3 41 -22 58 -66
58 l-39 0 0 -64z m76 33 c23 -39 8 -76 -35 -84 -19 -3 -21 1 -21 44 0 26 3 50
6 53 7 8 43 -2 50 -13z"/>
<path d="M2689 2223 c-1 -11 -1 -106 0 -118 1 -14 71 -13 71 1 0 6 -11 10 -24
9 -16 -2 -26 3 -29 15 -6 24 0 30 32 30 20 0 22 3 11 9 -8 6 -17 8 -21 5 -9
-5 -33 25 -26 32 3 4 18 7 32 7 14 0 25 3 25 8 0 11 -70 12 -71 2z"/>
<path d="M2781 2212 c-11 -21 -6 -31 32 -55 24 -15 26 -21 16 -33 -8 -10 -21
-13 -36 -9 -13 3 -23 1 -23 -4 0 -11 38 -21 56 -14 8 3 20 15 26 26 9 17 7 24
-11 38 -12 10 -27 19 -33 21 -7 3 -9 12 -5 22 5 12 13 15 27 11 11 -4 20 -2
20 4 0 19 -58 13 -69 -7z"/>
<path d="M2880 2165 c0 -37 4 -65 10 -65 6 0 10 28 10 65 0 37 -4 65 -10 65
-6 0 -10 -28 -10 -65z"/>
<path d="M2946 2208 c-17 -24 -21 -65 -8 -84 13 -20 47 -32 75 -27 23 5 27 10
27 39 0 31 -2 34 -31 34 -19 0 -28 -4 -24 -11 4 -6 14 -8 22 -5 10 4 14 0 11
-16 -6 -46 -68 -23 -68 25 0 37 16 51 54 50 20 -1 33 3 30 8 -11 19 -72 10
-88 -13z"/>
<path d="M3070 2159 c0 -44 4 -68 10 -64 6 3 10 30 11 58 l0 52 27 -52 c24
-50 51 -69 53 -40 7 76 3 117 -11 117 -4 0 -6 -22 -5 -50 1 -27 1 -50 -1 -50
-2 0 -15 23 -29 50 -37 74 -55 67 -55 -21z"/>
<path d="M3204 2166 c0 -35 4 -68 9 -72 7 -8 9 2 9 81 1 27 -4 51 -9 52 -6 2
-10 -21 -9 -61z"/>
<path d="M3260 2166 c0 -37 4 -66 10 -66 6 0 10 24 10 53 l0 52 31 -53 c16
-29 36 -51 42 -49 13 4 19 127 6 127 -11 0 -16 -22 -13 -63 2 -44 0 -43 -31
15 -12 23 -30 44 -39 46 -13 3 -16 -7 -16 -62z"/>
<path d="M3406 2208 c-29 -41 -13 -105 27 -109 7 -1 19 -2 27 -3 25 -2 40 15
40 45 0 26 -3 29 -32 29 -17 0 -28 -3 -24 -7 4 -5 13 -8 19 -8 18 0 14 -39 -4
-43 -23 -4 -49 24 -49 53 0 35 24 54 61 48 21 -3 29 -1 24 6 -12 20 -73 13
-89 -11z"/>
<path d="M3649 2218 c-7 -99 -1 -127 29 -122 6 1 18 2 26 3 44 4 63 83 28 114
-22 20 -82 23 -83 5z m73 -22 c17 -26 8 -66 -17 -78 -31 -14 -35 -10 -37 33
-2 65 0 71 25 63 12 -4 25 -12 29 -18z"/>
<path d="M3780 2165 c0 -37 4 -65 10 -65 6 0 10 28 10 65 0 37 -4 65 -10 65
-6 0 -10 -28 -10 -65z"/>
<path d="M3826 2208 c-42 -59 2 -118 82 -109 7 0 12 15 12 36 0 31 -3 35 -25
35 -14 0 -25 -4 -25 -10 0 -5 6 -9 12 -7 7 1 14 -8 16 -20 4 -29 -27 -31 -51
-5 -22 24 -21 44 2 73 17 21 22 22 46 11 21 -10 26 -10 23 0 -3 7 -21 14 -40
16 -28 2 -40 -2 -52 -20z"/>
<path d="M3955 2165 c0 -36 4 -65 10 -65 6 0 9 25 8 57 -2 73 -1 73 -11 73 -4
0 -8 -29 -7 -65z"/>
<path d="M3995 2220 c4 -6 14 -9 23 -8 13 2 17 -6 18 -37 2 -68 4 -75 13 -75
5 0 9 25 7 55 -1 46 1 55 16 55 9 0 20 5 23 10 4 6 -15 10 -50 10 -36 0 -54
-4 -50 -10z"/>
<path d="M4135 2218 c-2 -7 -13 -37 -24 -66 -10 -28 -15 -54 -11 -57 5 -3 11
4 15 15 8 24 60 28 69 5 10 -27 25 -16 17 13 -25 83 -54 124 -66 90z m34 -60
c1 -5 -8 -8 -19 -8 -23 0 -24 4 -8 33 11 21 11 21 19 2 4 -11 8 -23 8 -27z"/>
<path d="M4224 2164 c1 -66 1 -67 29 -68 31 -2 64 13 35 15 -10 1 -24 2 -30 3
-9 1 -13 19 -13 55 -1 30 -5 56 -11 58 -7 2 -10 -22 -10 -63z"/>
<path d="M4340 2165 c0 -37 4 -65 10 -65 6 0 10 24 11 53 0 28 3 45 6 37 3 -8
14 -35 25 -60 l20 -45 28 60 28 60 1 -52 c1 -29 6 -53 11 -53 6 0 10 28 10 65
0 83 -21 88 -54 14 l-22 -51 -22 51 c-31 75 -52 69 -52 -14z"/>
<path d="M4522 2168 c-21 -58 -22 -93 -1 -55 13 22 55 22 67 1 5 -9 14 -15 19
-13 13 5 -36 129 -51 129 -7 0 -22 -28 -34 -62z m47 5 c11 -21 9 -23 -13 -23
-24 0 -25 2 -14 25 6 14 12 24 13 23 1 -2 8 -13 14 -25z"/>
<path d="M4629 2215 c0 -8 -1 -35 -1 -60 0 -63 1 -67 11 -61 5 3 8 19 7 36 -1
16 0 30 3 30 12 0 28 -16 40 -37 6 -13 16 -23 22 -23 5 0 2 14 -7 32 -11 22
-13 33 -5 36 15 5 14 35 -1 50 -17 17 -68 15 -69 -3z m50 -4 c17 -11 7 -41
-14 -41 -9 0 -15 9 -15 25 0 27 6 30 29 16z"/>
<path d="M4740 2165 c0 -67 16 -91 22 -32 l3 32 20 -32 c10 -18 26 -33 33 -33
10 0 6 11 -12 34 l-26 35 26 28 c14 15 21 29 15 31 -6 2 -22 -9 -35 -25 l-25
-28 -1 28 c0 15 -4 27 -10 27 -6 0 -10 -28 -10 -65z"/>
<path d="M4859 2228 c0 -2 -1 -32 -1 -67 -1 -64 -1 -65 25 -64 51 2 53 3 38
12 -8 5 -20 7 -28 4 -7 -3 -13 -1 -14 3 0 5 -2 17 -4 27 -2 13 4 17 28 17 16
0 28 3 25 6 -4 3 -8 5 -10 3 -1 -1 -13 3 -26 10 -18 9 -21 16 -12 26 6 7 20
11 30 8 11 -3 20 0 20 6 0 9 -68 17 -71 9z"/>
<path d="M4945 2219 c4 -6 13 -8 21 -5 11 4 14 -7 14 -54 0 -77 18 -79 22 -2
2 35 7 57 15 57 6 0 15 3 19 8 4 4 -16 7 -45 7 -34 0 -50 -4 -46 -11z"/>
<path d="M5050 2166 c0 -36 5 -68 10 -71 6 -4 10 20 10 64 0 41 -4 71 -10 71
-6 0 -10 -28 -10 -64z"/>
</g>
</svg>
